<svg width="86" height="86" viewBox="0 0 86 86" fill="none" xmlns="http://www.w3.org/2000/svg">
<path fill-rule="evenodd" clip-rule="evenodd" d="M37.6249 23.2104L26.8322 11.7584C25.3648 10.3599 23.0493 10.4239 21.6602 11.9012L19.2482 14.4667L18.6769 15.1051C14.2429 20.3134 13.0816 27.8931 15.7592 34.5795C19.7018 44.4249 24.5176 52.3678 30.2064 58.4082C35.8952 64.4486 43.3735 69.5596 52.6414 73.7411C59.1978 76.6993 66.6629 75.23 71.5647 70.0164L74.2486 67.1619C75.5848 65.7406 75.5839 63.5154 74.2464 62.0952L63.4537 50.6433C61.9864 49.2448 59.6708 49.3087 58.2818 50.7861L53.3364 56.0459L52.2968 55.6425C43.0118 51.8537 35.6857 43.8414 32.4098 33.826L37.627 28.277C38.9633 26.8558 38.9624 24.6305 37.6249 23.2104Z" fill="black"/>
</svg>
