<svg width="100" height="100" viewBox="0 0 100 100" fill="none" xmlns="http://www.w3.org/2000/svg">
<path fill-rule="evenodd" clip-rule="evenodd" d="M0 15.625C0 6.99555 6.99555 0 15.625 0H84.375C93.0044 0 100 6.99555 100 15.625V84.375C100 93.0044 93.0044 100 84.375 100H15.625C6.99555 100 0 93.0044 0 84.375V15.625ZM50 25C63.75 25 75 36.25 75 50C75 62.5 65.9375 73.125 53.4375 75V57.1875H59.375L60.625 50H53.75V45.3125C53.75 43.4375 54.6875 41.5625 57.8125 41.5625H60.9375V35.3125C60.9375 35.3125 58.125 34.6875 55.3125 34.6875C49.6875 34.6875 45.9375 38.125 45.9375 44.375V50H39.6875V57.1875H45.9375V74.6875C34.0625 72.8125 25 62.5 25 50C25 36.25 36.25 25 50 25Z" fill="black"/>
</svg>
