<svg width="67" height="67" viewBox="0 0 67 67" fill="none" xmlns="http://www.w3.org/2000/svg">
<path fill-rule="evenodd" clip-rule="evenodd" d="M24.2083 19.5417C24.2083 14.41 28.3683 10.25 33.4999 10.25C38.6316 10.25 42.7916 14.41 42.7916 19.5417V31.625H24.2083V19.5417ZM33.4999 6.5C26.2972 6.5 20.4583 12.339 20.4583 19.5417V32.0938H13.958C13.1814 32.0938 12.5518 32.7234 12.5518 33.5V54.4375C12.5518 57.5269 15.0562 60.0313 18.1455 60.0313H48.8538C51.9432 60.0313 54.4476 57.5269 54.4476 54.4375V33.5C54.4476 32.7234 53.818 32.0938 53.0413 32.0938H46.5416V19.5417C46.5416 12.339 40.7026 6.5 33.4999 6.5ZM33.4998 39.0834C35.8125 39.0834 37.6873 40.9582 37.6873 43.2709C37.6873 45.0976 36.5176 46.6512 34.8863 47.2234C34.8991 47.2998 34.9058 47.3783 34.9058 47.4583V53.0416C34.9058 53.8183 34.2762 54.4479 33.4996 54.4479C32.7229 54.4479 32.0933 53.8183 32.0933 53.0416V47.4583C32.0933 47.3782 32.1 47.2997 32.1129 47.2233C30.4818 46.6509 29.3123 45.0975 29.3123 43.2709C29.3123 40.9582 31.1871 39.0834 33.4998 39.0834Z" fill="white"/>
</svg>
