<svg width="67" height="67" viewBox="0 0 67 67" fill="none" xmlns="http://www.w3.org/2000/svg">
<path fill-rule="evenodd" clip-rule="evenodd" d="M26.5205 43.7084C17.0281 43.7084 9.33301 36.0133 9.33301 26.5209C9.33301 17.0285 17.0281 9.33337 26.5205 9.33337C36.0129 9.33337 43.708 17.0285 43.708 26.5209C43.708 36.0133 36.0129 43.7084 26.5205 43.7084ZM5.58301 26.5209C5.58301 14.9574 14.957 5.58337 26.5205 5.58337C38.084 5.58337 47.458 14.9574 47.458 26.5209C47.458 38.0843 38.084 47.4584 26.5205 47.4584C14.957 47.4584 5.58301 38.0843 5.58301 26.5209ZM47.3185 42.0151C45.8541 40.5507 43.4797 40.5507 42.0152 42.0151C40.5508 43.4796 40.5508 45.854 42.0152 47.3184L53.1819 58.4851C54.6463 59.9496 57.0207 59.9496 58.4852 58.4851C59.9496 57.0206 59.9496 54.6463 58.4852 53.1818L47.3185 42.0151Z" fill="white"/>
</svg>
