<svg width="100" height="100" viewBox="0 0 100 100" fill="none" xmlns="http://www.w3.org/2000/svg">
<path fill-rule="evenodd" clip-rule="evenodd" d="M15.625 0C6.99558 0 0 6.99556 0 15.625V84.375C0 93.0045 6.99558 100 15.625 100H84.375C93.0044 100 100 93.0045 100 84.375V15.625C100 6.99556 93.0044 0 84.375 0H15.625ZM59.7445 25C59.7445 25.743 59.8139 26.4747 59.9417 27.1828C60.5566 30.4564 62.4939 33.2657 65.185 35.0185C67.0641 36.2491 69.2911 36.9573 71.6921 36.9573L71.6917 38.8727V45.5478C67.2375 45.5478 63.1083 44.12 59.7443 41.7053V59.1769C59.7443 67.8952 52.6457 75 43.9347 75C40.5709 75 37.439 73.9317 34.8755 72.1324C30.7927 69.2649 28.125 64.5285 28.125 59.1769C28.125 50.4469 35.2121 43.3539 43.9231 43.3653C44.6539 43.3653 45.3614 43.4234 46.0574 43.5164V45.5478L46.032 45.56L46.0573 45.5595V52.2927C45.3846 52.0837 44.6654 51.9561 43.9231 51.9561C39.9446 51.9561 36.7084 55.195 36.7084 59.1769C36.7084 61.9515 38.2858 64.3545 40.5825 65.5735C40.6165 65.62 40.651 65.6661 40.686 65.7118C40.6596 65.6608 40.6291 65.6108 40.5942 65.5618C41.6033 66.0959 42.74 66.3977 43.9464 66.3977C47.8319 66.3977 51.0103 63.2982 51.1494 59.444L51.161 25H59.7445Z" fill="black"/>
</svg>
